<svg width="24" height="24" viewBox="0 0 24 24" fill="none" xmlns="http://www.w3.org/2000/svg">
<circle cx="12" cy="12" r="12" fill="#1F78FF"/>
<path d="M11.8644 7.228C12.8911 7.228 13.7918 7.42867 14.5664 7.83C15.3504 8.23133 15.9524 8.80533 16.3724 9.552C16.8018 10.2893 17.0164 11.148 17.0164 12.128C17.0164 13.108 16.8018 13.9667 16.3724 14.704C15.9524 15.432 15.3504 15.9967 14.5664 16.398C13.7918 16.7993 12.8911 17 11.8644 17H8.44842V7.228H11.8644ZM11.7944 15.334C12.8211 15.334 13.6144 15.054 14.1744 14.494C14.7344 13.934 15.0144 13.1453 15.0144 12.128C15.0144 11.1107 14.7344 10.3173 14.1744 9.748C13.6144 9.16933 12.8211 8.88 11.7944 8.88H10.4084V15.334H11.7944Z" fill="white"/>
</svg>
